<svg xmlns="http://www.w3.org/2000/svg" viewBox="0 0 500 500"><g id="freepik--Trees--inject-244"><g id="freepik--Palm--inject-244"><path d="M430.52,400c-11.52-75-16.8-225.69-15.35-268.49l-6.68.28c-3.22,68.7-.79,186.22,6.4,268.21Z" style="fill:#ebebeb"></path><path d="M404,99.77c-.52,11.37-3.52,27.57,4.24,38.35,1,.64,5.46.84,6.79.31,3.87-4,7.14-8.39,7.51-38.45,0,0-2.44-3-9.23-3.27S404,99.77,404,99.77Z" style="fill:#f0f0f0"></path><path d="M388.47,105.31c-15.2,15.63-20.07,36.58-18,57.05,1-11.24,3.47-23.78,10.53-33.16,3.63-4.81,7.82-10.93,13.75-13.34-3.86,11.93-7.65,36.43-7.65,36.43s7-29.51,13.64-43.13c-2.35,15-3.62,30.58-1.85,45.65-.22-14.93,1.31-48.36,14.13-59.33,10.38,11.74,13.58,35.75,14.93,50.92.74-13.38.33-26.1-3.77-38.95,9.71,13,12.29,31.42,14.66,46.94.18-14-.76-29-6.13-42.1,15.7,10.58,18.19,38.91,19.58,55.85.93-19.56-.67-40.85-11.43-57.84,7.68,6.55,14.76,17.35,17.39,27.12-2.59-12.26-7.34-25-15.83-34.46,12.12,6.89,19.41,14.81,26.41,27-2.75-12.33-12.86-34.4-20.57-41.16,10.63-.3,16.9,7.93,21.47,18.14-2.59-9.93-7.19-22.28-18.1-26.61-6.38-2.52-13-2.73-19.92-2.85,7.73-9.25,21.06-5.76,30.69-2.36-8.57-5.12-17.4-8.33-27.53-6.47,10.78-8.42,22.14-4.74,31.6,3.25-5.85-7.71-14.11-14.72-24.31-14.37-9.08.32-17.5,5.81-23.12,12.77,1.34-8.57,3.16-19.46,10.12-25.52C420.94,49,416.55,58.93,413.9,67.33c-2-12.15-1.24-23.13,1.49-35.11-4.83,8.5-6.5,20.19-6.49,29.82-2.62-5.32-11.37-13.35-11.38-13.34s9,17.09,9.58,25.67c-11.68-18.23-29.71-18.09-45.73-5,15.32-9.06,26.61-7.48,37,7.29-10.18-7.18-20.38-6.34-31.83-2.93,13.27-2.63,22.34,3.11,31.6,11.9C384.72,81.15,371.7,86.8,363,97.34,371,90,383.57,86.8,394.47,94c-19.6,2.22-33.86,18.52-36,35.05C362.82,115.79,374.76,105,388.47,105.31Z" style="fill:#f5f5f5"></path><path d="M412.59,100.18c-16.48,14.25-20.48,42.56-21.47,62.59-1-12.17-.4-29.82,1.79-41.83-7.91,8.4-12.51,23.57-14.45,37.81-.18-19.3-1.75-35.19,14.74-51.88-16.07,5.77-24.38,14.88-31.73,33.42,1.8-14,9.31-35,33.34-42.24-16.77-4.16-32,7.22-39.68,18.94,3.32-14.35,23.9-29.91,41-29.64-18.2-12-34.71.36-42.48,13.91,2.33-16.15,25.31-33.53,41.93-23-6.48-7.83-13-10.58-22.92-8.16C385.22,63,396.13,67.49,406,76.65c-3-10.34-8.46-26.84-22.05-26.06,13.69-2.57,21.6,9.5,26.31,20.4.45-11.55,5.5-24.11,15.39-30.74-5.1,7.48-7.71,16.62-8.84,25.51,4.19-7.06,12.15-17.31,21.86-12.55-10,1.28-14.68,14.55-17,22.63a42.92,42.92,0,0,1,27.18-2C463,77.48,471,90,472.61,104.89c-4.87-16.1-17.83-26.11-34.68-20.93,21.78,2.45,34.52,28.56,35.17,49.3C468.67,113.6,453,96.38,439.68,96.38c17.43,12.58,24.09,34.79,24.18,55-1.24-21.82-12.3-42.77-34.15-48.55,12.74,17.2,16.37,36.57,15.45,57.62C445,146.14,441.41,135.18,434,123c1.31,15.15-4.45,45.63-4.45,45.63s2.24-33.94-2.9-49.26a94.18,94.18,0,0,1-3.5,31.59C424,139.1,425.29,109.07,412.59,100.18Z" style="fill:#ebebeb"></path><path d="M410.78,97.85c-8.4,14.6-8.26,36-5.48,51.72-.95-13.33-.7-35.67,7.89-47.17A137.74,137.74,0,0,1,418,141.72a138,138,0,0,0-2.61-45c8.13,7.45,14,19.32,15.76,30.1-1.61-10.82-3.91-22.82-11.1-31.49,11.35.48,20.38,7.2,25.31,17.07-4.31-11.08-12.6-18.86-24.73-20.54,5.46-6.72,16.8-11.5,25-6.55-8.16-7.08-21.06-3.37-28.11,3.38.9-7,5.72-16.74,13.58-18-8.78.11-12.78,10.07-15.74,16.72a47.31,47.31,0,0,0-5-23.92c3,7.26,3.72,16.15,2.95,23.88-2.1-5.75-5.15-13.15-12.15-14.12a22.49,22.49,0,0,1,9.69,16.12c-5.76-5.86-11.55-10.86-20-11.94C398,79.33,405.21,85.4,409,91.66c-8.06-2.33-16.07-3-22.87,2.87,6.24-3.56,16.47-4.07,22.55.21-9.48,3.79-13.9,12.94-15.34,22.54C395,109.61,401.52,98,410.78,97.85Z" style="fill:#e0e0e0"></path></g><path id="freepik--palm--inject-244" d="M485.89,247.42A61.73,61.73,0,0,0,481.76,236a32.37,32.37,0,0,1,6.51,13.25c-.27-8.88-4.56-19.53-12.07-24.52,4.87.52,7.92,4,10.19,9a25.49,25.49,0,0,0-4.42-9.64,18.78,18.78,0,0,1,6,9.43c-.89-8.26-5.33-15.17-13.15-17.18a23.41,23.41,0,0,0-5.46-.73c4.07-1.34,9.05.06,12.94,1.44-4.74-2.84-9.63-4.61-15.23-3.58,6-4.66,12.25-2.63,17.48,1.79-3.23-4.26-7.8-8.14-13.44-8a16,16,0,0,0-8.57,3.09c1.53-2.76,3.66-5.09,6.65-5.47-3.89-1.91-7.27.53-9.72,3.51.82-3.12,2.11-6.15,4.44-8.18a14.45,14.45,0,0,0-5.73,6,28.23,28.23,0,0,1,3.8-8.53,19.15,19.15,0,0,0-7.07,9.56,50.91,50.91,0,0,1,1.41-14c-2.68,4.7-3.6,11.16-3.59,16.49-1.45-2.94-6.3-7.38-6.3-7.38s1,1.9,2.13,4.41a10.16,10.16,0,0,0-9.65-3.36c6-.35,9.17,5.46,11,10.73-6.42-7.59-15.43-6.95-23.51-.34,6-3.53,10.82-4.14,15.17-1.35a12.87,12.87,0,0,0-8.9,1.74c3.69-.91,6.55-.5,9.12,1.19-4-1.11-8.09-.49-12.52.83a15.64,15.64,0,0,1,9.14.75c-7.65.46-15.28,7.67-16.26,14.48,3.8-6.61,11.36-12.72,20-9.49-5.73-.21-11.05,2.71-14.87,7.32a14.89,14.89,0,0,1,10.89-4.06c-7.22,2.76-13.87,9-15.23,14.93,3.06-4.69,8.33-9.28,14.53-10.59a23.18,23.18,0,0,0-12.7,17.26,19.71,19.71,0,0,1,10.67-12c-6,5.28-8.29,12.69-9,18.2,3.11-7.87,6.55-12.66,12-15.91-6.09,8.15-8,18.23-7,28.12.53-5.86,1.77-12.36,5.18-17.43-1,4.85-.79,9.88-.74,15.43,1.08-7.88,3.62-16.27,8-20.92-.12.68-.24,1.4-.34,2.14-1.6,6.8-2.9,15.2-2.9,15.2s.89-3.74,2.22-8.46a100.82,100.82,0,0,0,0,14.26c.35-7.1,1.39-16.08,4.49-23.69a84.7,84.7,0,0,0-.22,19.29c-.08-5.47.27-15.41,2.57-23.27a65,65,0,0,0,.16,6.6,60.63,60.63,0,0,0,.85,13.77,79.4,79.4,0,0,1-.13-9.41,7,7,0,0,0,1.27,2.6,2.06,2.06,0,0,0,.48.3c-1.61,39.48-.1,104.61,4,148.81l8.87-.19c-6.45-38.28-9.58-119.73-9.14-148.32a2.23,2.23,0,0,0,1.1-.6,7.65,7.65,0,0,0,.56-.69c0,1.06,0,2.12,0,3.16.13-1.18.23-2.4.3-3.64.82-1.39,1.47-3.69,1.85-9.5,1.33,6.54,1,14.26.7,18.27a50.14,50.14,0,0,0,1.8-9.69c.37,2.57.62,5,.81,7.14a71.63,71.63,0,0,0-.37-13.92c2.44,8.87,1.27,26.24,1.3,26.25s2.38-12.63,2.55-21.47A130.21,130.21,0,0,1,469.3,261a80.85,80.85,0,0,0-.9-14.27,37.21,37.21,0,0,1,4.42,17.62c.37-8.51-.61-16.52-3.91-23.93,6,7.07,7.16,20,7.83,28.19.51-10.83-.37-22.61-6.33-32a32.65,32.65,0,0,1,9.63,15,50.82,50.82,0,0,0-3.69-11.28c4.17,5.14,6.41,12,6.81,19,0-7.87-1.87-16.28-6.32-23A38.29,38.29,0,0,1,485.89,247.42Z" style="fill:#f0f0f0"></path><path id="freepik--palm--inject-244" d="M328.36,236.17A68.46,68.46,0,0,1,333,223.23a36.69,36.69,0,0,0-7.38,15c.31-10.06,5.17-22.13,13.67-27.78-5.52.59-9,4.49-11.54,10.24a28.69,28.69,0,0,1,5-10.91A21.23,21.23,0,0,0,326,220.48c1-9.37,6.05-17.18,14.9-19.47a27.33,27.33,0,0,1,6.19-.82c-4.62-1.51-10.26.07-14.67,1.63,5.37-3.21,10.91-5.22,17.25-4.06-6.75-5.27-13.87-3-19.8,2,3.67-4.84,8.84-9.23,15.23-9a18,18,0,0,1,9.71,3.49c-1.74-3.13-4.15-5.76-7.53-6.2,4.4-2.16,8.23.61,11,4-.92-3.54-2.38-7-5-9.27a16.35,16.35,0,0,1,6.49,6.83,31.92,31.92,0,0,0-4.3-9.66,21.63,21.63,0,0,1,8,10.83,57.89,57.89,0,0,0-1.59-15.86c3,5.33,4.08,12.65,4.07,18.68,1.64-3.33,7.13-8.36,7.13-8.35s-1.13,2.14-2.42,5c2.77-2.89,6.33-4.68,10.93-3.81-6.83-.39-10.38,6.19-12.49,12.15,7.28-8.59,17.48-7.86,26.63-.38-6.75-4-12.25-4.68-17.18-1.53a14.61,14.61,0,0,1,10.08,2c-4.18-1-7.41-.57-10.33,1.35,4.52-1.25,9.16-.55,14.18.94a17.75,17.75,0,0,0-10.35.85c8.66.52,17.3,8.68,18.41,16.4-4.3-7.49-12.86-14.4-22.66-10.75,6.5-.24,12.52,3.07,16.84,8.29a16.83,16.83,0,0,0-12.32-4.6c8.17,3.13,15.69,10.23,17.24,16.91-3.47-5.31-9.44-10.51-16.45-12a26.25,26.25,0,0,1,14.37,19.55A22.33,22.33,0,0,0,385.41,222c6.79,6,9.39,14.38,10.19,20.62-3.53-8.92-7.43-14.34-13.59-18,6.9,9.24,9.08,20.65,8,31.84-.6-6.63-2-14-5.86-19.73,1.18,5.49.89,11.19.83,17.47-1.21-8.92-4.09-18.43-9.05-23.69.14.77.26,1.59.38,2.42,1.81,7.7,3.28,17.22,3.28,17.22s-1-4.23-2.5-9.58a115.46,115.46,0,0,1,0,16.15c-.4-8-1.57-18.22-5.08-26.84a96.24,96.24,0,0,1,.24,21.85c.09-6.19-.3-17.45-2.9-26.35,0,2.53,0,5.12-.19,7.48a68.3,68.3,0,0,1-1,15.59,89.58,89.58,0,0,0,.14-10.66,7.81,7.81,0,0,1-1.43,2.95,2.62,2.62,0,0,1-.54.34c1.81,44.71,3.61,109.42-1.05,159.48l-10.05-.21c7.3-43.36,7.35-126.56,6.85-158.93a2.49,2.49,0,0,1-1.25-.68,9.92,9.92,0,0,1-.63-.79c0,1.21,0,2.41,0,3.58-.15-1.33-.26-2.71-.34-4.11-.94-1.58-1.67-4.19-2.1-10.76-1.51,7.4-1.09,16.15-.79,20.69a56.22,56.22,0,0,1-2-11c-.42,2.91-.71,5.68-.92,8.09a81,81,0,0,1,.42-15.76c-2.77,10-1.44,29.71-1.47,29.72s-2.7-14.31-2.89-24.31a147.73,147.73,0,0,0-2.89,15.36,91.89,91.89,0,0,1,1-16.16,42.08,42.08,0,0,0-5,20c-.42-9.64.69-18.71,4.43-27.1-6.83,8-8.11,22.67-8.87,31.92-.58-12.26.42-25.6,7.16-36.25a37,37,0,0,0-10.9,17,58.18,58.18,0,0,1,4.18-12.77c-4.73,5.82-7.26,13.58-7.72,21.53,0-8.92,2.12-18.45,7.16-26.06A43.48,43.48,0,0,0,328.36,236.17Z" style="fill:#f0f0f0"></path><g id="freepik--palm--inject-244"><path d="M69.48,400H85.11c7.19-82,9.62-199.51,6.4-268.21l-6.68-.28C86.28,174.34,81,325,69.48,400Z" style="fill:#ebebeb"></path><path d="M96,99.77c.52,11.37,3.52,27.57-4.24,38.35-1,.64-5.46.84-6.79.31-3.87-4-7.14-8.39-7.51-38.45,0,0,2.44-3,9.23-3.27S96,99.77,96,99.77Z" style="fill:#f0f0f0"></path><path d="M141.55,129.05c-2.16-16.53-16.42-32.83-36-35.05,10.9-7.2,23.52-4,31.49,3.34-8.72-10.54-21.74-16.19-35.17-11.71,9.26-8.79,18.33-14.53,31.6-11.9-11.45-3.41-21.65-4.25-31.83,2.93,10.4-14.77,21.69-16.35,37-7.29-16-13.09-34-13.23-45.73,5,.54-8.58,9.58-25.67,9.58-25.67S93.72,56.72,91.1,62c0-9.63-1.66-21.32-6.49-29.82,2.73,12,3.52,23,1.49,35.11-2.65-8.4-7-18.34-15.22-22.56,7,6.06,8.78,16.95,10.12,25.52-5.62-7-14-12.45-23.12-12.77-10.2-.35-18.46,6.66-24.31,14.37,9.46-8,20.82-11.67,31.6-3.25C55,66.78,46.21,70,37.64,75.11c9.63-3.4,23-6.89,30.7,2.36-6.88.12-13.55.33-19.93,2.85C37.5,84.65,32.9,97,30.31,106.93c4.57-10.21,10.84-18.44,21.47-18.14C44.07,95.55,34,117.62,31.21,130c7-12.18,14.29-20.1,26.41-27-8.49,9.49-13.24,22.2-15.83,34.46,2.63-9.77,9.71-20.57,17.39-27.12-10.76,17-12.36,38.28-11.43,57.84,1.39-16.94,3.88-45.27,19.58-55.85C62,125.39,61,140.42,61.2,154.39c2.37-15.52,5-34,14.66-46.94-4.1,12.85-4.51,25.57-3.77,39,1.35-15.17,4.55-39.18,14.93-50.92,12.82,11,14.35,44.4,14.13,59.33,1.77-15.07.5-30.7-1.85-45.65,6.64,13.62,13.64,43.13,13.64,43.13s-3.79-24.5-7.65-36.43c5.93,2.41,10.12,8.53,13.75,13.34,7.06,9.38,9.51,21.92,10.53,33.16,2-20.47-2.84-41.42-18-57.05C125.24,105,137.18,115.79,141.55,129.05Z" style="fill:#f5f5f5"></path><path d="M87.41,100.18c16.48,14.25,20.48,42.56,21.47,62.59,1-12.17.4-29.82-1.79-41.83,7.91,8.4,12.51,23.57,14.45,37.81.18-19.3,1.75-35.19-14.74-51.88,16.07,5.77,24.38,14.88,31.73,33.42-1.8-14-9.31-35-33.34-42.24,16.77-4.16,32,7.22,39.68,18.94-3.32-14.35-23.9-29.91-41-29.64,18.2-12,34.71.36,42.48,13.91C144,85.11,121,67.73,104.38,78.23c6.48-7.83,13-10.58,22.92-8.16C114.78,63,103.87,67.49,94,76.65c3-10.34,8.46-26.84,22-26.06C102.38,48,94.47,60.09,89.76,71c-.45-11.55-5.5-24.11-15.39-30.74,5.1,7.48,7.71,16.62,8.84,25.51C79,58.7,71.06,48.45,61.35,53.21c10,1.28,14.68,14.55,17,22.63a42.92,42.92,0,0,0-27.18-2C37,77.48,29,90,27.39,104.89,32.26,88.79,45.22,78.78,62.07,84c-21.78,2.45-34.52,28.56-35.17,49.3C31.33,113.6,47,96.38,60.32,96.38c-17.43,12.58-24.09,34.79-24.18,55,1.24-21.82,12.3-42.77,34.15-48.55C57.55,120,53.92,139.41,54.84,160.46,55,146.14,58.59,135.18,66,123c-1.31,15.15,4.45,45.63,4.45,45.63s-2.24-33.94,2.9-49.26A94.18,94.18,0,0,0,76.82,151C76,139.1,74.71,109.07,87.41,100.18Z" style="fill:#ebebeb"></path><path d="M89.22,97.85c8.4,14.6,8.26,36,5.48,51.72,1-13.33.7-35.67-7.89-47.17A137.74,137.74,0,0,0,82,141.72a138,138,0,0,1,2.61-45c-8.13,7.45-14,19.32-15.76,30.1C70.43,116,72.73,104,79.92,95.37c-11.35.48-20.38,7.2-25.31,17.07,4.32-11.08,12.6-18.86,24.73-20.54-5.46-6.72-16.8-11.5-25-6.55,8.16-7.08,21.06-3.37,28.11,3.38-.9-7-5.72-16.74-13.58-18,8.78.11,12.78,10.07,15.74,16.72a47.31,47.31,0,0,1,5-23.92c-3,7.26-3.72,16.15-3,23.88,2.1-5.75,5.15-13.15,12.15-14.12a22.49,22.49,0,0,0-9.69,16.12c5.76-5.86,11.55-10.86,20-11.94C102,79.33,94.79,85.4,91.05,91.66c8.06-2.33,16.07-3,22.87,2.87-6.24-3.56-16.47-4.07-22.55.21,9.48,3.79,13.9,12.94,15.34,22.54C105,109.61,98.48,98,89.22,97.85Z" style="fill:#e0e0e0"></path></g><path id="freepik--palm--inject-244" d="M14.11,247.42A61.73,61.73,0,0,1,18.24,236a32.37,32.37,0,0,0-6.51,13.25c.27-8.88,4.56-19.53,12.07-24.52-4.87.52-7.92,4-10.19,9A25.49,25.49,0,0,1,18,224.13a18.78,18.78,0,0,0-6,9.43c.89-8.26,5.33-15.17,13.15-17.18a23.41,23.41,0,0,1,5.46-.73c-4.07-1.34-9,.06-12.94,1.44,4.74-2.84,9.63-4.61,15.23-3.58-6-4.66-12.25-2.63-17.48,1.79,3.23-4.26,7.8-8.14,13.44-8a16,16,0,0,1,8.57,3.09c-1.53-2.76-3.66-5.09-6.65-5.47,3.89-1.91,7.27.53,9.72,3.51-.82-3.12-2.11-6.15-4.44-8.18a14.45,14.45,0,0,1,5.73,6A28.23,28.23,0,0,0,38,197.8a19.15,19.15,0,0,1,7.07,9.56,50.91,50.91,0,0,0-1.41-14c2.68,4.7,3.6,11.16,3.59,16.49,1.45-2.94,6.3-7.38,6.3-7.38s-1,1.9-2.13,4.41a10.16,10.16,0,0,1,9.65-3.36c-6-.35-9.17,5.46-11,10.73,6.42-7.59,15.43-6.95,23.51-.34-6-3.53-10.82-4.14-15.17-1.35a12.87,12.87,0,0,1,8.9,1.74c-3.69-.91-6.55-.5-9.12,1.19,4-1.11,8.09-.49,12.52.83a15.64,15.64,0,0,0-9.14.75c7.65.46,15.28,7.67,16.26,14.48-3.8-6.61-11.36-12.72-20-9.49,5.73-.21,11,2.71,14.87,7.32a14.89,14.89,0,0,0-10.89-4.06c7.22,2.76,13.87,9,15.23,14.93-3.06-4.69-8.33-9.28-14.53-10.59a23.18,23.18,0,0,1,12.7,17.26,19.71,19.71,0,0,0-10.67-12c6,5.28,8.29,12.69,9,18.2-3.11-7.87-6.55-12.66-12-15.91,6.09,8.15,8,18.23,7,28.12C68,259.5,66.76,253,63.35,247.93c1,4.85.79,9.88.74,15.43-1.08-7.88-3.62-16.27-8-20.92.12.68.23,1.4.34,2.14,1.6,6.8,2.9,15.2,2.9,15.2s-.89-3.74-2.22-8.46a100.82,100.82,0,0,1,0,14.26c-.35-7.1-1.39-16.08-4.49-23.69a84.7,84.7,0,0,1,.22,19.29c.08-5.47-.27-15.41-2.57-23.27a65,65,0,0,1-.16,6.6,60.63,60.63,0,0,1-.85,13.77,79.4,79.4,0,0,0,.13-9.41,7,7,0,0,1-1.27,2.6,2.06,2.06,0,0,1-.48.3c1.61,39.48.1,104.61-4,148.81l-8.87-.19c6.45-38.28,9.58-119.73,9.14-148.32a2.23,2.23,0,0,1-1.1-.6,7.65,7.65,0,0,1-.56-.69c0,1.06,0,2.12,0,3.16-.13-1.18-.23-2.4-.3-3.64-.82-1.39-1.47-3.69-1.85-9.5-1.33,6.54-1,14.26-.7,18.27a50.14,50.14,0,0,1-1.8-9.69c-.37,2.57-.63,5-.81,7.14a71.63,71.63,0,0,1,.37-13.92c-2.44,8.87-1.27,26.24-1.3,26.25s-2.38-12.63-2.55-21.47A130.21,130.21,0,0,0,30.7,261a80.85,80.85,0,0,1,.9-14.27,37.21,37.21,0,0,0-4.42,17.62c-.37-8.51.61-16.52,3.91-23.93-6,7.07-7.16,20-7.83,28.19-.51-10.83.37-22.61,6.33-32a32.65,32.65,0,0,0-9.63,15,50.82,50.82,0,0,1,3.69-11.28c-4.17,5.14-6.41,12-6.81,19,0-7.87,1.87-16.28,6.32-23A38.29,38.29,0,0,0,14.11,247.42Z" style="fill:#f0f0f0"></path><path id="freepik--palm--inject-244" d="M168.14,227.13a68.92,68.92,0,0,0-4.68-12.94,36.65,36.65,0,0,1,7.38,15c-.31-10.06-5.17-22.12-13.68-27.78,5.52.59,9,4.49,11.55,10.25a28.74,28.74,0,0,0-5-10.92,21.34,21.34,0,0,1,6.84,10.68c-1-9.36-6-17.18-14.91-19.46a26.77,26.77,0,0,0-6.18-.83c4.61-1.51,10.26.07,14.66,1.63-5.37-3.21-10.9-5.22-17.25-4.05,6.75-5.28,13.88-3,19.8,2-3.66-4.83-8.84-9.22-15.23-9a18,18,0,0,0-9.7,3.5c1.73-3.13,4.15-5.77,7.53-6.2-4.4-2.16-8.23.6-11,4,.93-3.53,2.39-7,5-9.27a16.49,16.49,0,0,0-6.5,6.83,32,32,0,0,1,4.31-9.65,21.58,21.58,0,0,0-8,10.82,57.93,57.93,0,0,1,1.59-15.86c-3,5.33-4.07,12.65-4.06,18.69-1.65-3.34-7.13-8.36-7.13-8.36s1.13,2.14,2.41,5c-2.77-2.89-6.33-4.67-10.93-3.81,6.83-.39,10.39,6.19,12.49,12.15-7.27-8.59-17.47-7.86-26.62-.38,6.74-4,12.24-4.68,17.18-1.53a14.68,14.68,0,0,0-10.09,2c4.19-1,7.42-.57,10.33,1.35-4.52-1.25-9.16-.55-14.18.95a17.57,17.57,0,0,1,10.35.85c-8.65.52-17.29,8.68-18.41,16.39,4.3-7.49,12.87-14.4,22.66-10.74-6.49-.25-12.51,3.06-16.84,8.28a16.89,16.89,0,0,1,12.33-4.6C106,205.22,98.47,212.32,96.92,219c3.47-5.32,9.44-10.52,16.46-12A26.25,26.25,0,0,0,99,226.56,22.24,22.24,0,0,1,111.08,213c-6.79,6-9.39,14.37-10.18,20.61,3.53-8.91,7.42-14.34,13.58-18-6.89,9.24-9.08,20.65-8,31.85.6-6.64,2-14,5.86-19.74-1.17,5.49-.88,11.2-.83,17.47,1.22-8.92,4.1-18.42,9.06-23.69-.14.77-.27,1.59-.39,2.43-1.81,7.7-3.28,17.22-3.28,17.22s1-4.24,2.51-9.59a113.94,113.94,0,0,0,0,16.15c.39-8,1.57-18.21,5.08-26.83a95,95,0,0,0-.24,21.84c-.09-6.19.3-17.45,2.9-26.35a73.49,73.49,0,0,0,.18,7.48,68.88,68.88,0,0,0,1,15.59,91.75,91.75,0,0,1-.14-10.66,8,8,0,0,0,1.43,3,2.7,2.7,0,0,0,.55.34c-1.82,44.71-.11,118.47,4.55,168.53l10.05-.21c-7.3-43.36-10.85-135.61-10.36-168a2.57,2.57,0,0,0,1.26-.68c.21-.25.42-.5.63-.79,0,1.21,0,2.41,0,3.58.15-1.33.26-2.71.33-4.11.94-1.58,1.68-4.19,2.1-10.76,1.51,7.41,1.09,16.15.8,20.69a56.22,56.22,0,0,0,2-11c.42,2.91.71,5.68.93,8.09a81.79,81.79,0,0,0-.43-15.76c2.77,10,1.45,29.71,1.47,29.72s2.7-14.31,2.9-24.31a145.05,145.05,0,0,1,2.88,15.36,90.76,90.76,0,0,0-1-16.15,42,42,0,0,1,5,20c.42-9.63-.7-18.71-4.43-27.1,6.82,8,8.11,22.67,8.87,31.92.58-12.26-.42-25.6-7.17-36.25a36.92,36.92,0,0,1,10.9,17A57.32,57.32,0,0,0,157.33,219c4.73,5.81,7.27,13.57,7.72,21.52,0-8.91-2.12-18.44-7.15-26.06A43.69,43.69,0,0,1,168.14,227.13Z" style="fill:#f0f0f0"></path></g><g id="freepik--Floor--inject-244"><g id="freepik--Street--inject-244"><path d="M459.34,407.38q-5.26,5.85-11.18,11.39-2.45,2.3-5,4.52C398,462.83,328.23,488.17,250,488.17c-76.35,0-144.6-24.14-189.86-62.06-1.76-1.46-3.46-2.95-5.14-4.46A181.19,181.19,0,0,1,39.43,406c1.57-.64,3.17-1.28,4.79-1.9,27.72-10.73,59.7-18.82,93.83-24.25h0q9.62-1.54,19.47-2.79h0c64.78-8.25,135.62-7.35,199.08,2.69h0q10.94,1.73,21.54,3.82h0c26.29,5.18,50.95,12,72.93,20.54Q455.35,405.71,459.34,407.38Z" style="fill:#455a64"></path><path d="M157.56,370v7h0l-97.4,49.08c-1.76-1.46-3.46-2.95-5.14-4.46A181.19,181.19,0,0,1,39.43,406q-2.45-2.76-4.71-5.58c3.79-1.33,8-2.75,9.49-3.34,32.95-12.77,71.91-21.78,113.34-27.05Z" style="fill:#37474f"></path><path d="M157.56,370v7h0l-97.4,49.08c-1.76-1.46-3.46-2.95-5.14-4.46l83.05-41.83h0L157.55,370Z" style="fill:#263238"></path><path d="M342.44,370v7h0l97.4,49.08c1.76-1.46,3.46-2.95,5.14-4.46A181.19,181.19,0,0,0,460.57,406q2.44-2.76,4.71-5.58c-3.79-1.33-7.95-2.75-9.49-3.34-33-12.77-71.91-21.78-113.34-27.05Z" style="fill:#37474f"></path><path d="M342.44,370v7h0l97.4,49.08c1.76-1.46,3.46-2.95,5.14-4.46L362,379.82h0L342.45,370Z" style="fill:#263238"></path></g></g><g id="freepik--Character--inject-244"><path id="freepik--Shadow--inject-244" d="M190.35,435.22a131.14,131.14,0,0,1,29.44,10.92c10.48,5.4,20.28,12.23,31.28,16.47,14.31,5.5,30.14,6.36,45.29,4,8.58-1.33,17.75-4.18,22.55-11.41a9.91,9.91,0,0,0,1.92-6.25c-.31-3.25-2.88-5.79-5.47-7.78-13.83-10.58-31.86-13.61-49.16-15.64s-27.93-5.75-45.44-12.61c-7.49-2.94-14.91-6.16-22.43-8.88l-.18-.07a113.7,113.7,0,0,0-11.41-3.92,85.55,85.55,0,0,0-19.32-2.83,38.76,38.76,0,0,0-18.88,4.29,8.6,8.6,0,0,0-3.71,3.29,7,7,0,0,0-.54,4.16,14.67,14.67,0,0,0,3.83,7.65,31.55,31.55,0,0,0,6.77,5.39C165.58,428.72,178.16,432.3,190.35,435.22Z" style="fill:#37474f"></path><g id="freepik--character--inject-244"><g id="freepik--Bottom--inject-244"><path d="M203.78,416.69c-1.05-4.36-3-7.93-3.75-11.11a26.53,26.53,0,0,1-.52-11.4,53.48,53.48,0,0,1,4.68-15.13c3.36-6.76,8.2-14.79,25.27-35.09l-26.82-6.47c-3.95,8.71-11.4,23.9-12.7,25a3.82,3.82,0,0,1-.32.27l0,0c-2.33,1.86-6.07,2.87-9.37,5.84l0,0a7.07,7.07,0,0,0-1.78,7.54,10.91,10.91,0,0,1,.36,1.14,34.65,34.65,0,0,1,1.82,7.85c.26,3.32-1.46,7.26-2.81,11.58s-1.13,6.91,1,10.72c1.67,3,8.21,10.33,13.91,12.62C201.82,423.73,204.83,421.06,203.78,416.69Z" style="fill:#ffc4c3"></path><path d="M178.24,370.1a7.31,7.31,0,0,0-3.51,3.54,22.63,22.63,0,0,0,1.52,8.72c1.41,3.9,1.91,5.5.91,8.49s-2.47,6.69-2,12.15,2.88,12.56,10.94,18.55c6.6,4.9,12.36,4.67,14.55,4.26s2.67-3.44,2.67-3.44Z" style="fill:#263238"></path><path d="M190.06,362.38a7.89,7.89,0,0,0-2.7,4.5c-.52,4.37,4.06,10,5.35,11.48a4.44,4.44,0,0,1,3.45-1.24c2.85,0,7.8.43,8.29,1.68s-3.73,10.24-4.39,16.91a28.65,28.65,0,0,0,2.77,15.5c1.71,3.42,4.63,8.08-.2,12.26-2.83.83-14.53-.68-21.41-10.57-6.11-8.77-3.38-17.82-1.84-22.46s.19-7.43-1.17-13.14c-.6-2.49-1.23-4.36,0-7.2C182.39,364.89,190.06,362.38,190.06,362.38Z" style="fill:#37474f"></path><path d="M181.22,412.9c.9-2.64,5.13-6.33,10.55-7.42,6.66-1.34,9,0,10.47,2.26,1.23,1.85,7.89,12.52.68,15.91C200.58,425.1,189.21,425.09,181.22,412.9Z" style="fill:#fafafa"></path><path d="M192.71,378.36a2.4,2.4,0,0,1,.82,1.45,5.46,5.46,0,0,1-.22,1.68c-.3,1.06-.55,2.09-.81,3.15-.54,2.1-1,4.21-1.45,6.32a60.25,60.25,0,0,0-.9,6.39,29.2,29.2,0,0,0,.16,6.47,19.53,19.53,0,0,1-.93-6.5,35.16,35.16,0,0,1,.67-6.55,54.88,54.88,0,0,1,1.63-6.36c.33-1,.72-2.08,1.1-3.09a5.58,5.58,0,0,0,.44-1.5A2.51,2.51,0,0,0,192.71,378.36Z" style="fill:#263238"></path><path d="M189,402.16c2.62-1.1,9.76-1.44,11.23.8l.14.76a3.49,3.49,0,0,0-.07-2.33c-.47-1.39-5.33-2.89-11.38-.89C188.28,401.11,188.2,402.41,189,402.16Z" style="fill:#fafafa"></path><path d="M189.26,396.57c2.55-1.25,9.1-1.74,10.7.41l0,.62a2,2,0,0,0,.14-2.12c-.55-1.36-5.06-2.91-11-.57C188.48,395.56,188.48,396.86,189.26,396.57Z" style="fill:#fafafa"></path><path d="M190,390.9c2.62-1,9.27-1.25,10.67,1.05l-.16.74a2.63,2.63,0,0,0,.53-2c-.33-1.48-5.05-3.25-11.1-1.45C189.33,389.82,189.24,391.13,190,390.9Z" style="fill:#fafafa"></path><path d="M190.94,386.09c2.62-1,9.7-1.33,11.1,1l-.18.74a2.93,2.93,0,0,0,.54-2.12c-.32-1.48-5.45-3.07-11.5-1.27C190.25,385,190.14,386.32,190.94,386.09Z" style="fill:#fafafa"></path><path d="M298.49,441.78c-2.29-1.38-4.42-3-6.7-4.37a35.21,35.21,0,0,1-6.48-4.76c-3.49-3.39-5.73-7.84-7.69-12.29a20.41,20.41,0,0,1-1.84-5.88,18.87,18.87,0,0,1,.3-3.46,11.73,11.73,0,0,0-.12-1.67c-.08-1.27-.16-2.53-.23-3.8-.17-3.2-.3-6.41-.41-9.61-.33-9.51-.49-19-.59-28.52L249.65,381c1.95,6.92,4.9,25.08,4.69,28.94-.43,7.8-4.63,18,2.71,23.19,1.45,1,3.11,1.72,4.63,2.63,5,2.94,8.31,8,12.8,11.59a30.54,30.54,0,0,0,11.4,5.67,18.33,18.33,0,0,0,5.22,1.08,43.56,43.56,0,0,0,6.82-.86,11.85,11.85,0,0,0,4-1.35,4.75,4.75,0,0,0,2.36-3.35,5,5,0,0,0-1.62-3.94,17.54,17.54,0,0,0-3.62-2.5Z" style="fill:#ffc4c3"></path><path d="M251.13,428.74c-.45.71-.49,2.86.16,5.21,1,1.35,2.58,2.41,6.44,4.49s5.1,4.14,6.81,7a31,31,0,0,0,5.92,7.09c4.32,3.85,10.73,6,21.33,5.54,6.63-.29,12.07-2.91,13.52-4.76a4.81,4.81,0,0,0,.94-3.87Z" style="fill:#263238"></path><path d="M253,411.24c0-1,1-2,1.31-1.69.07,1.07-.1,3.95.63,5a17,17,0,0,0,9.89,6.19s-.35-1.11,2.11-2,8.71-3.15,10-2.51,2.56,7.15,6.73,12.88a34.77,34.77,0,0,0,14.22,11c3.75,1.51,8,4.61,7.92,9.5-3.92,5.33-14.34,5.88-20.66,5.33-11.21-1-16.2-7.9-19.29-12.05s-4.12-4.79-9.21-8.34c-2.22-1.54-4.54-2.65-5.55-5.78C250.11,421.08,253,419.85,253,411.24Z" style="fill:#37474f"></path><path d="M279.09,453.63c-.56-4,1.41-9.19,7.85-12.4s9.18-2.48,11.38-1.65,9.84,4.63,7.82,10.21C305.31,452.58,291.81,458.35,279.09,453.63Z" style="fill:#fafafa"></path><path d="M264.87,420.74a2.53,2.53,0,0,1,1.66.56,5.48,5.48,0,0,1,1,1.48l1.58,3.06c1.05,2,2.14,4,3.3,6a58.28,58.28,0,0,0,3.79,5.67,30.12,30.12,0,0,0,4.66,5,20.76,20.76,0,0,1-5.3-4.46,38.77,38.77,0,0,1-4.08-5.65,58,58,0,0,1-3.18-6.17c-.48-1-.92-2.13-1.3-3.21a5.86,5.86,0,0,0-.71-1.49A2.66,2.66,0,0,0,264.87,420.74Z" style="fill:#263238"></path><path d="M277.76,441.66c2-2,10.91-5.93,13.87-5l.69.44a3.36,3.36,0,0,0-1.63-1.63c-1.38-.79-9.1.67-14.09,5C276.33,441.23,277.09,442.23,277.76,441.66Z" style="fill:#fafafa"></path><path d="M274.13,437.28c2-2,9.77-5.39,12.73-4.45l.58.55a2.79,2.79,0,0,0-1.52-1.73c-1.38-.79-8,.11-12.95,4.44C272.7,436.84,273.46,437.84,274.13,437.28Z" style="fill:#fafafa"></path><path d="M271.64,432.66c2.07-2,8.9-4.91,11.83-3.89l.43.62a2.8,2.8,0,0,0-1.11-1.67c-1.29-.94-7.17-.46-12.27,3.73C270.22,432.19,271,433.2,271.64,432.66Z" style="fill:#fafafa"></path><path d="M269.23,428.67c2.07-2,8.91-4.91,11.84-3.89l.36.68a2.63,2.63,0,0,0-1-1.73c-1.29-.94-7.17-.46-12.28,3.72C267.82,428.2,268.55,429.21,269.23,428.67Z" style="fill:#fafafa"></path><path d="M228.68,242.08l16.78-27.76s25.09-16.55,34-27.48c0,0,11.54,23.22,8.5,53.24a141.35,141.35,0,0,1-24.45,65.37c-7.27,10.25-49.25,58.09-49.25,58.09-4.27-.24-16-7.75-18-13.7,0,0,10-24.69,14.73-33.66,6.13-11.71,7.75-17.19,20.27-27.68C229.21,277.21,228.68,242.08,228.68,242.08Z" style="fill:#37474f"></path><path d="M200.73,347.57l-.91-.47.45-.86c11-21.17,24.73-47.51,52.55-56.12l.3,1c-27.41,8.48-41,34.62-51.94,55.62Z" style="fill:#263238"></path><path d="M264,235l-34.39,34.36a178.09,178.09,0,0,0,1.71,19.15,75.4,75.4,0,0,0-8.67,8.31l13,21.2c-1.74,7-.89,15.71-.06,21.06,11.58-13.44,24.28-28.4,28-33.62a134.11,134.11,0,0,0,11.12-19l-6-49.57s9.43-4.92,12.09-13.54C275.88,230.93,264,235,264,235Z" style="fill:#263238"></path><path d="M222.78,271.69c-5.51-15.46-9-25.25-10.89-36.08-2.74-15.42-.19-24.24,2-29.12,6.42-14.68,9.94-19.49,12.34-24.57,0,0,4.86,10.11,26.8,12,25.11,2.12,28.07-7,28.07-7-.8,9.25,1.93,21.08-.95,28.81C274.32,231.15,264,235,264,235l7.15,43.22c2.74,22.68,4,18.9,4.18,63.48.07,19.57.16,50.62.16,50.62-3,1.9-17.42,4.05-22.75,1.81,0,0-5.35-20.1-8.49-33.49-6-25.63-6.81-32.22-5-44.49C239.25,316.14,229.1,289.41,222.78,271.69Z" style="fill:#37474f"></path><path d="M257.3,395c-2.49-12-7.47-36.31-9.63-49.17a86.56,86.56,0,0,1-1.17-23.49,51,51,0,0,0,.21-6.72c-.38-7.46-5.88-23.82-11.7-41.14-5.14-15.31-10.44-31.11-12-40.36l.53,0a9,9,0,0,0,5.71-2c5.15-4,8.67-13.92,10.44-29.34l-1-.12c-1.72,14.93-5.2,24.84-10.06,28.65a8,8,0,0,1-5.76,1.8c-2.14-14.72,1.65-25.28,5-34.59.93-2.59,1.81-5,2.55-7.5l-1-.29c-.73,2.44-1.61,4.86-2.53,7.44-3.43,9.51-7.31,20.3-5,35.49,1.4,9.25,6.85,25.47,12.13,41.16,5.54,16.5,11.26,33.55,11.64,40.88a50.72,50.72,0,0,1-.2,6.58A86.82,86.82,0,0,0,246.66,346c2.14,12.76,7.06,36.81,9.57,48.9Z" style="fill:#263238"></path><path d="M252.14,395.07s4.27,2.1,13.06,1.09,10.42-3.78,10.42-3.78V379.52s-3.19,3-12.26,4c-9.5,1-13.9-.79-13.9-.79Z" style="fill:#455a64"></path><path d="M195.79,350.1s.3,6,7.51,11.16,11,2.95,11,2.95l8.15-10s-5.91,1.77-13.31-3.55c-7.77-5.58-8-12.49-8-12.49Z" style="fill:#455a64"></path></g><g id="freepik--Top--inject-244"><path d="M264.54,123.31c12.32-.85,16.46,1.3,21.5,8.88,5.16,7.78,14.15,20.73,21.92,32.66L331.78,157,340,171.18s-27.15,14.09-33.45,15.15-7.48-.62-12-5.3c-5-5.19-21.85-25.57-21.85-25.57Z" style="fill:#ffc4c3"></path><path d="M357.42,132.18h0l-1.52-1.42v0a1.75,1.75,0,0,0-1.6-.24l-17.19,3.94a6.3,6.3,0,0,0-4,3.42l-13.64,34.8a1.61,1.61,0,0,0,.15,1.81h0l1.56,1.46v0a1.75,1.75,0,0,0,1.62.25l17.19-3.94a6.24,6.24,0,0,0,4-3.42l13.64-34.8A1.56,1.56,0,0,0,357.42,132.18Z" style="fill:#455a64"></path><path d="M336.77,136.82a6.09,6.09,0,0,0-2.07,2.51l-13.65,34.79a1.71,1.71,0,0,0,.1,1.78l-1.47-1.36,0,0a1.59,1.59,0,0,1-.16-1.81l13.64-34.81a6,6,0,0,1,1.92-2.38Z" style="fill:#263238"></path><path d="M321.06,174.13l13.64-34.8a6.3,6.3,0,0,1,4-3.42L355.85,132c1.59-.37,2.4.57,1.8,2.09L344,168.86a6.24,6.24,0,0,1-4,3.42l-17.19,3.94C321.27,176.59,320.46,175.65,321.06,174.13Z" style="fill:#37474f"></path><path d="M334.43,146.73l2.55-6.51a1.15,1.15,0,0,1,.74-.64l3.22-.74c.3-.07.45.11.33.39l-2.55,6.51a1.13,1.13,0,0,1-.74.64l-3.22.74C334.47,147.19,334.31,147,334.43,146.73Z" style="fill:#455a64"></path><path d="M337.07,141.8a3,3,0,0,1,1.89-1.57c.77-.18,1.17.24.9.93a3,3,0,0,1-1.89,1.58C337.2,142.91,336.8,142.49,337.07,141.8Z" style="fill:#263238"></path><path d="M335.83,145.09a2.91,2.91,0,0,1,1.88-1.57c.77-.18,1.18.24.9.93a2.91,2.91,0,0,1-1.88,1.57C336,146.2,335.55,145.78,335.83,145.09Z" style="fill:#263238"></path><path d="M268.33,122c4.36.55,9.43.58,15,5.77,4.27,3.95,11.21,14.62,15.32,20.5-2.81,12.06-15.9,22-21.22,23.38l-5.55-8.16Z" style="fill:#f0f0f0"></path><path d="M354,153.22c1.92-2.15,1.8-2.48,1-3.76a7.42,7.42,0,0,0-5.64-3.72c-2.06-.16-4.12-.43-5.24,0s-.46,2.75,2.14,3.65c4.11,1.4,4,2.54,4,2.54a53.62,53.62,0,0,0-5.33-1.55c-1.55-.25-4.47.18-6.28.26s-2.4,2.34.52,3.46l-3.31.16c-2.31.11-3.22,1.24-1.59,2.85a3.42,3.42,0,0,0,2,1s-2.43-.27-2.56.53c-.4,2.3,1,3.07,5.78,5,4.52,1.87,5.21,4.49,4.09,6.13,0,0,2-.89,3.8-1.87,1.32-.71,2.47-1.55,2.12-3.53,0,0,2.67.35,3-1.29a8.44,8.44,0,0,0-.26-3.61,2.92,2.92,0,0,0,1.78-2.57,4.74,4.74,0,0,0-.66-3Z" style="fill:#ffc4c3"></path><path d="M339.12,154.1a14.94,14.94,0,0,1,3,0,9.46,9.46,0,0,1,2.76,1.22,34.4,34.4,0,0,1,4.85,3.32,35.3,35.3,0,0,1-5.28-2.57,16.24,16.24,0,0,0-2.49-1.32C341.08,154.51,340.06,154.38,339.12,154.1Z" style="fill:#f28f8f"></path><path d="M336.2,158.11a6.57,6.57,0,0,1,3.2.25,17.23,17.23,0,0,1,2.94,1.29,30.2,30.2,0,0,1,5.24,3.59,60.77,60.77,0,0,1-5.65-2.83A16.67,16.67,0,0,0,336.2,158.11Z" style="fill:#f28f8f"></path><path d="M258.63,121.14s-28.16,1-33.69,2c-3.3.61-8.44,5.53-8.73,24.68-.18,11.92-2.37,48.83-2.37,48.83,15.57,13.41,67.26,8.56,74.23.3,0,0-.67-19.15-.86-27.87,0,0,3.15-6.7,3.09-12.17-.1-8-1.59-11-8.37-20.35A80.47,80.47,0,0,0,268.33,122Z" style="fill:#fafafa"></path><path d="M286.17,142.7h0c-2.38-.33-8.07-.75-19.49.28a220.16,220.16,0,0,0-25.52,3.68c-1.17,7.53-.14,17.6,1.5,23.64,0,0,10.36-3,27.34-4.5a119.83,119.83,0,0,1,18.54-.08,27.49,27.49,0,0,0,1.76-8.81C290.23,150.94,289.38,147.78,286.17,142.7Z" style="fill:#DD1818"></path><path d="M256.8,154.64a1.45,1.45,0,0,1-1.74-.85c0-.19,0-1,.32-1.08a.2.2,0,0,0,0,.14c0,.11.21.11.42.07,1.07-.24,3.84-3.93,3.68-4.95,0-.21-.2-.31-.52-.25-1.59.32-4.62,2.69-6.74,5.55-2.28,3.06-4,7.28-3.59,10a1.51,1.51,0,0,0,2.06,1.35c3.28-.82,7.94-7,7.94-7.44,0-.07,0-.11.1-.12s.34.13.39.44a10.13,10.13,0,0,1,.06,1.76c0,1-3.24,6.17-8.51,7.48a3.69,3.69,0,0,1-4.34-3.07c-1.05-6.37,6.08-16.77,12.73-18.09.94-.19,2.76.16,3,1.54C262.41,149.52,258.54,154.27,256.8,154.64Z" style="fill:#fafafa"></path><path d="M271.78,159.67a1.27,1.27,0,0,1,0,.58c-.24.74-1.89,3.15-3.63,3.41a1.8,1.8,0,0,1-2.18-1.39,4.71,4.71,0,0,1,.19-2.39c-1,1.81-2.77,4.63-4.44,4.94a1.64,1.64,0,0,1-1.91-1.4c-.3-1.87,1.07-5.14,1.5-6.31.9-2.44,1.23-3.48,1.94-3.61a1.09,1.09,0,0,1,1,.7c.07.45-2.49,6.65-2.3,7.78,0,.13.07.19.17.17.93-.17,4.75-6.34,5-7.27a6.36,6.36,0,0,1,1-2.07,3.26,3.26,0,0,1,1.38-.6l.22,0c.13,0,.36.38.39.51a.1.1,0,0,1,0,0c-.77,2.33-1.25,3.31-1.46,4-.26.87-1,3.33-.86,4.39,0,.34.2.54.5.49,1.08-.32,2.42-2.67,2.62-2.92a.46.46,0,0,1,.27-.15.29.29,0,0,1,.32.21C271.6,158.93,271.72,159.32,271.78,159.67Z" style="fill:#fafafa"></path><path d="M274.18,150.21s-1.94.47-2.23.51h-.11c-.37.05-1.11,0-1.19-.5,0-.19.27-.42.31-.7s1.05-1.14,1.47-1.23,1.12-.19,1.68-.28c1.22-.2.64.19,1.17-.19s.85-1.82,1.39-2.63c.13-.22.14-.28.42-.31s.39-.12.6-.14.35.1.56.09.33.18.36.33a20.61,20.61,0,0,1-1,2.36c.16,0,1-.17,1.28-.2a3.51,3.51,0,0,1,.72,0c.34.11.49.46.81.65a.47.47,0,0,1,.28.36c.08.53-.53.8-.92.87-1.18.22-2.1.44-3.29.63-.71,1.56-3.5,8.64-3.47,10a3.68,3.68,0,0,0,0,.51c.08.52.33.62.74.57,1.26-.15,3.11-3,3.44-3s.49.92.53,1.16a1.33,1.33,0,0,1-.4,1.21c-.76.85-2.16,2.57-3.66,2.75h-.37a2.33,2.33,0,0,1-2.44-2.3C270.61,158.61,273.3,152.17,274.18,150.21Z" style="fill:#fafafa"></path><path d="M282.64,153.81c-.41,0-.5-.18-.56-.56a1.36,1.36,0,0,1,0-.35,5.8,5.8,0,0,0-1,.6c-.38.27-2,1.61-1.91,2.1,0,.1.22.08.27.08.71-.06,1.23-.55,1.89-.6a1.22,1.22,0,0,1,.27,0,1.77,1.77,0,0,1,.7.84c0,.22-.22.47-.36.62-.33.35-.77.41-1.14.67s-2.51,1.78-2.41,2.37c.15.93,1.21.94,1.9.88,1.91-.15,3.43-2.09,4.48-3.08a.59.59,0,0,1,.28-.15c.34,0,.47.79.51,1a2.19,2.19,0,0,1,0,.72,1.54,1.54,0,0,1-.43.66,8.25,8.25,0,0,1-4.92,2.67c-1.55.12-3.67-.16-4-2.1-.24-1.46.9-2.43,2.05-3-.77-.27-.92-.77-1-1.47-.42-2.6,3.62-4.87,5.84-5,.46,0,1.35.15,1.45.72A2.1,2.1,0,0,1,282.64,153.81Z" style="fill:#fafafa"></path><path d="M216.21,147.82c0,4.07-.11,8.15-.23,12.22s-.29,8.15-.46,12.22L215,184.47l-.66,12.21-.17-.39a27,27,0,0,0,8.31,4.47,60.83,60.83,0,0,0,9.27,2.36,106.65,106.65,0,0,0,19.15,1.44,132.71,132.71,0,0,0,19.2-1.48,81.63,81.63,0,0,0,9.42-2c.78-.21,1.54-.48,2.3-.71s1.52-.53,2.24-.88a11.66,11.66,0,0,0,4-2.57,11.56,11.56,0,0,1-4,2.73c-.72.38-1.49.63-2.23.95s-1.52.56-2.29.79a74.25,74.25,0,0,1-9.43,2.23,126.94,126.94,0,0,1-19.28,1.79,108,108,0,0,1-19.33-1.33,55.16,55.16,0,0,1-9.44-2.41,28.06,28.06,0,0,1-8.58-4.69l-.18-.15v-.24l1.5-24.4C215.32,164.09,215.88,156,216.21,147.82Z" style="fill:#e0e0e0"></path><path d="M281,61.32c-9.36-11.58-21.93-14.1-33.65-11.36-6.94,1.62-14.17,5.72-16.19,13-5.78,0-9.67,6.13-10.36,17.21s-.86,29.22,1.73,33.11,4.75,4.75,6.48,5.36c-1.68-1.69-3.25-6-3.25-6s1.83,3.27,6.91,5.77c4.27,2.1,8,3,14.58,3.22,8,.27,15.81-.86,19.53-2.5a7.89,7.89,0,0,1-4.23-4.33s3.54,4.5,11,2.17c-3.28-.7-5.14-4.66-5.21-11.41,0-2.09,0-7,0-12.79,4-1.83,8.26-2.62,10.65-7.18a15.9,15.9,0,0,0,1.09-11,7.78,7.78,0,0,1,2.84,6C286.25,74.69,285.33,66.65,281,61.32Z" style="fill:#37474f"></path><path d="M273.54,117.05c-2.31-.49-3.91-2.6-4.68-6.15a20.65,20.65,0,0,1-4.94-3.15,16.8,16.8,0,0,0,1.77,4.75,15.09,15.09,0,0,1-4.84-3c.33.3.42,1.65.55,2.09s.41,1,.25,1.4a64.92,64.92,0,0,1-7.46-4.7,7.58,7.58,0,0,0,2.12,4.73,37.74,37.74,0,0,1-7-3.82,12.82,12.82,0,0,0,2.76,5.37A28.47,28.47,0,0,1,244,110a40.15,40.15,0,0,0,2.66,5,23.93,23.93,0,0,1-5.42-2.78c.4,1,.81,2,1.22,3a16.2,16.2,0,0,1-8.7-7.83,17,17,0,0,0,1.37,7A20.42,20.42,0,0,1,226,106a7.68,7.68,0,0,0,.14,4.09,11.44,11.44,0,0,1-4-6.59,11.63,11.63,0,0,0,.39,5.28,9.91,9.91,0,0,1-1.77-3.45c.33,3.73.89,6.65,1.76,8,2.59,3.89,4.75,4.75,6.48,5.36-1.68-1.69-3.25-6-3.25-6s1.83,3.27,6.91,5.77c4.27,2.1,8,3,14.58,3.22,8,.27,15.81-.86,19.53-2.5a7.89,7.89,0,0,1-4.23-4.33S266.11,119.38,273.54,117.05Z" style="fill:#DD1818"></path><path d="M273.54,117.05c-2.31-.49-3.91-2.6-4.68-6.15a20.65,20.65,0,0,1-4.94-3.15,16.8,16.8,0,0,0,1.77,4.75,15.09,15.09,0,0,1-4.84-3c.33.3.42,1.65.55,2.09s.41,1,.25,1.4a64.92,64.92,0,0,1-7.46-4.7,7.58,7.58,0,0,0,2.12,4.73,37.74,37.74,0,0,1-7-3.82,12.82,12.82,0,0,0,2.76,5.37A28.47,28.47,0,0,1,244,110a40.15,40.15,0,0,0,2.66,5,23.93,23.93,0,0,1-5.42-2.78c.4,1,.81,2,1.22,3a16.2,16.2,0,0,1-8.7-7.83,17,17,0,0,0,1.37,7A20.42,20.42,0,0,1,226,106a7.68,7.68,0,0,0,.14,4.09,11.44,11.44,0,0,1-4-6.59,11.63,11.63,0,0,0,.39,5.28,9.91,9.91,0,0,1-1.77-3.45c.33,3.73.89,6.65,1.76,8,2.59,3.89,4.75,4.75,6.48,5.36-1.68-1.69-3.25-6-3.25-6s1.83,3.27,6.91,5.77c4.27,2.1,8,3,14.58,3.22,8,.27,15.81-.86,19.53-2.5a7.89,7.89,0,0,1-4.23-4.33S266.11,119.38,273.54,117.05Z" style="fill:#fff;opacity:0.30000000000000004"></path><path d="M237.85,117.27c0-2.43-.46-14.62-.46-14.62-.1.91-4.5,3.43-8.49-1.23s-4.32-9.66-2-12.86c2.59-3.54,8.42-3.39,10.8,2.33,3.81.86,5.5-5,2.54-10.51.21-7.1,7.49-6.78,11.08-16,9.19,4.74,17.66.87,23.53,7.74,1.22,3.44,2.18,8.84,2.28,18.47.15,15.71-2.88,19.47-7.14,21.42-2.54,1.15-5.66,1.49-10.51,1.13l.26,4.06h0c.11,2-.06,2.9,1.92,3.55,1.33.43,4,1,4,1s5.77,5.38-6.82,7.18c-18.79,2.68-29.12-6.35-29.12-6.35s1.28-.22,4.48-.82S237.85,119.7,237.85,117.27Z" style="fill:#ffc4c3"></path><path d="M229.08,89.6a.43.43,0,0,1-.86,0,1.81,1.81,0,1,0-2.55,1.64,7.3,7.3,0,0,0-.16.86,2.66,2.66,0,1,1,3.57-2.5Z" style="fill:#fafafa"></path><path d="M228.12,94.42a.43.43,0,0,1-.59-.11,1.84,1.84,0,0,0-2.51-.5,1.79,1.79,0,0,0-.48,2.5,1.82,1.82,0,0,0,1.14.77,1.89,1.89,0,0,0,.53,0c.1.27.22.54.35.81A2.39,2.39,0,0,1,226,98a2.26,2.26,0,0,1-.51,0,2.59,2.59,0,0,1-1.7-1.12,2.68,2.68,0,0,1,.72-3.71,2.59,2.59,0,0,1,.91-.38,2.66,2.66,0,0,1,2.8,1.11A.43.43,0,0,1,228.12,94.42Z" style="fill:#fafafa"></path><path d="M231.93,99.83a1.91,1.91,0,1,0,1.84-2A1.9,1.9,0,0,0,231.93,99.83Z" style="fill:#DD1818"></path><path d="M254.6,98.52l6.81,2.11a3.5,3.5,0,0,1-4.4,2.48A3.73,3.73,0,0,1,254.6,98.52Z" style="fill:#b16668"></path><path d="M255,100.09a3.92,3.92,0,0,1,4,3,3.42,3.42,0,0,1-2,0,3.66,3.66,0,0,1-2.49-3A4.34,4.34,0,0,1,255,100.09Z" style="fill:#f28f8f"></path><path d="M274.27,77.94l-5.46-.55a2.63,2.63,0,0,1,2.9-2.49A2.89,2.89,0,0,1,274.27,77.94Z" style="fill:#37474f"></path><path d="M248.42,78.49l5.44-1.12a2.66,2.66,0,0,0-3.18-2.2A2.93,2.93,0,0,0,248.42,78.49Z" style="fill:#37474f"></path><path d="M268.16,84.85a2.36,2.36,0,0,0,2.13,2.48,2.2,2.2,0,0,0,2.43-2,2.35,2.35,0,0,0-2.12-2.48A2.22,2.22,0,0,0,268.16,84.85Z" style="fill:#263238"></path><path d="M251.6,85.4a2.35,2.35,0,0,0,2.12,2.48,2.22,2.22,0,0,0,2.44-2A2.36,2.36,0,0,0,254,83.36,2.2,2.2,0,0,0,251.6,85.4Z" style="fill:#263238"></path><path d="M245,80l-13.41,6.24a6.15,6.15,0,0,1,4,1.61l9.85-4.75Z" style="fill:#DD1818"></path><path d="M245,80l-13.41,6.24a6.15,6.15,0,0,1,4,1.61l9.85-4.75Z" style="opacity:0.1"></path><path d="M280.33,79.08c-3.41-.39-8-.5-10.86.4-3.16,1-4.3,2.15-6,2.19s-3-1-6.36-2c-2.67-.72-7.13-.54-10.54-.12-1.17,0-2.24.39-2.28,1.94.13,1.47,1.08,1.69,1.31,2.88.54,4.09,1.28,9.31,6.63,9.53,11,.59,7.5-10.12,11.55-9.6,1.46.32,1.24,3.14,2.13,5.15a8.23,8.23,0,0,0,1.37,2.18c3.59,3.78,10.42,1.64,11.47-2.14.91-1.88.76-4.89,1.72-6.51C281.28,82.27,282,79.49,280.33,79.08ZM259.4,87.56a6.81,6.81,0,0,1-1.56,3,6.05,6.05,0,0,1-4.55,1.8c-2.38,0-4.76-1.1-5.38-3.41-.08-.21-.15-.42-.22-.63-.47-1.71-1.1-5.34-.18-6.39,1.66-1.76,9.57-1.66,11.89,1C260,83.89,259.8,85.87,259.4,87.56Zm18.81-1c-.26,1.19-.85,3.75-3.13,4.91-3,1.53-7.2,0-7.83-2.93-1.8-6.13.59-7.56,6.7-8.19C279,80.34,279.25,81.64,278.21,86.57Z" style="fill:#DD1818"></path><path d="M278.21,86.57c-.26,1.19-.85,3.75-3.13,4.91-3,1.53-7.2,0-7.83-2.93-1.8-6.13.59-7.56,6.7-8.19C279,80.34,279.25,81.64,278.21,86.57Z" style="fill:#37474f"></path><path d="M259.4,87.56a6.81,6.81,0,0,1-1.56,3,6.05,6.05,0,0,1-4.55,1.8c-2.38,0-4.76-1.1-5.38-3.41-.08-.21-.15-.42-.22-.63-.47-1.71-1.1-5.34-.18-6.39,1.66-1.76,9.57-1.66,11.89,1C260,83.89,259.8,85.87,259.4,87.56Z" style="fill:#37474f"></path><path d="M253.84,80.87c-2.69-.25-5.43.15-6.33,1.11s-.29,4.68.18,6.39c0,.1.07.21.11.31a9.87,9.87,0,0,0,2.4-.45c.5-.16,1.13-.34,1.49,0a1.2,1.2,0,0,1,0,1.3,4.14,4.14,0,0,0-.75,2.43,7.29,7.29,0,0,0,2.38.4,6.05,6.05,0,0,0,4.55-1.8,5.53,5.53,0,0,0,.67-.9,6.17,6.17,0,0,1-3,.65,1.41,1.41,0,0,1-1-.3,1.32,1.32,0,0,1-.15-1.24,8.24,8.24,0,0,1,1.61-3,2.82,2.82,0,0,0,.54-.87.81.81,0,0,0-.26-.92,1.1,1.1,0,0,0-.89,0,8.8,8.8,0,0,0-2.11.85c-.42.24-1,.52-1.36.23a.87.87,0,0,1-.3-.71,3.05,3.05,0,0,1,.87-1.82C252.86,82,253.34,81.43,253.84,80.87Z" style="fill:#455a64"></path><path d="M277,89a2.16,2.16,0,0,1-1.76,0,.63.63,0,0,1-.31-.29.66.66,0,0,1,0-.37,7,7,0,0,1,1-2.4,1.69,1.69,0,0,0,.27-1.18,1.35,1.35,0,0,0-1.38-.81c-.57,0-1.13.22-1.7.25a1.22,1.22,0,0,1-.86-.23,1,1,0,0,1-.31-1,2.64,2.64,0,0,1,.4-.95,9.38,9.38,0,0,1,1.27-1.61c-5.22.59-7.57,1.86-6.74,6.43a3.1,3.1,0,0,0,.52.31,4,4,0,0,0,2.58.17,7.68,7.68,0,0,1,2.29-.48,1.19,1.19,0,0,1,.77.3,1.23,1.23,0,0,1,.24,1.13,6,6,0,0,1-.68,1.61,3.54,3.54,0,0,0-.48,1.66,1.62,1.62,0,0,0,.11.54,5.7,5.7,0,0,0,2.89-.59,5.4,5.4,0,0,0,2.46-2.77A3.2,3.2,0,0,1,277,89Z" style="fill:#455a64"></path><path d="M270.06,93.66l-7.38,3.12L262,85.29a1.67,1.67,0,0,1,1.27-1L265.16,87l4.62,6.33Z" style="fill:#ffa8a7"></path><path d="M259.51,113.17c-8.7-.81-17-3.58-19-7.53,0,0,0,4.33,3.55,6.37,5,2.86,15.68,4.23,15.68,4.23Z" style="fill:#ffa8a7"></path><path d="M193.71,148.22c-3.17,5.2,0,13,6.66,19.12,7,6.45,19.11,11.74,21.52,4.57s-4.08-16.72-8-20.43S197.35,142.13,193.71,148.22Z" style="fill:#e0e0e0"></path><path d="M224.78,123.55c-4.41.79-12.41,1-18.62,10.81-6.73,10.69-15.41,28.72-20.86,42.9-3.28,8.51-3.85,13.05.8,18.52,4.09,4.8,21.49,20.12,26.8,25,3.53,3.27,8.41,9.68,12,12.19,0,0,7.17-1.69,10.8-14.68,0,0,.27-1.94,4.92-.36,3.22,1.1,7.31,1.32,9.24-.55s-2.6-2.85-4.91-4.26a27.25,27.25,0,0,0-11.16-4.53c-5.73-.94-7.43-1.41-13-7s-12.39-15.78-12.39-15.78l14.71-30.46C228.42,144.22,229.54,133.64,224.78,123.55Z" style="fill:#ffc4c3"></path><path d="M208.45,185.8c-3.63-4.7-11.34-5-11.34-5a14.62,14.62,0,0,1,12.34,2.9Z" style="fill:#ffa8a7"></path><path d="M224.94,123.14c-4.16.41-9.56,1.21-12.11,3.33a55.75,55.75,0,0,0-8.63,8.37c-5.71,6.74-10.49,13.38-10.49,13.38s6.69-2.61,15.08,3.78c8.05,6.14,12.3,14.38,13.1,19.91,2.92-8.14,5.36-16.93,6.88-22S231.37,130.93,224.94,123.14Z" style="fill:#f0f0f0"></path></g></g></g><g id="freepik--Crown--inject-244"><g id="freepik--crown--inject-244"><path d="M268.57,41.69c-1.17.93-3.14,2.42-4.54,1.6a4.1,4.1,0,0,1-1.32-1.63,19.53,19.53,0,0,1-1.06-2.09,46.92,46.92,0,0,1-2.59-9.15c-.09-.45-1.08-.61-1.22,0-.56,2.42-.56,4.89-1.48,7.29a8,8,0,0,1-4.66,4.76c-2.57.85-4.35-.91-5.77-2.26a28.27,28.27,0,0,1-4.41-5.38c-1.29-2.06-2.43-3.71-4.1-6.11-.18-.26-1-.16-.94.31a68.19,68.19,0,0,1,.22,14.44,3.82,3.82,0,0,1-1.25,3.06,4.2,4.2,0,0,1-3.12.7,11.55,11.55,0,0,1-3.23-1.12,22.18,22.18,0,0,1-2.75-1.52,19.94,19.94,0,0,1-5-4.57c-.27-.34-1.22-.23-1,.34a28.67,28.67,0,0,1,1.7,9.43,4.81,4.81,0,0,1-1.25,3.81,5.55,5.55,0,0,1-4.06,1.09,28.33,28.33,0,0,1-5.59-1c-.4-.11-1.16.28-.81.68a162.88,162.88,0,0,1,11.82,15.36.78.78,0,0,0,.79.2c10.88-3.51,21.76-7.12,32.83-9.64,3.12-.71,6.24-1.31,9.37-1.93.53-.1.21-.75-.21-.7a137,137,0,0,0-16.77,3.51c-5.52,1.44-11,3.1-16.45,4.83q-4.3,1.36-8.61,2.77A172.4,172.4,0,0,0,212.46,55a26.35,26.35,0,0,0,3.78.61,8.09,8.09,0,0,0,4.65-.81,4.72,4.72,0,0,0,2.27-3.73,21.21,21.21,0,0,0-.25-5.11,29.2,29.2,0,0,0-.78-3.6A22.26,22.26,0,0,0,225.29,45a19.2,19.2,0,0,0,6.32,3c2.08.47,4.95-.08,5.81-2.36a12.74,12.74,0,0,0,.49-3.65c.1-1.34.15-2.67.17-4a67.11,67.11,0,0,0-.34-7.53c.8,1.57,1.85,3.31,2.83,4.86A28.23,28.23,0,0,0,245.34,41c1.61,1.5,3.55,3.08,6.34,2.41A8.78,8.78,0,0,0,257,39.07a15.54,15.54,0,0,0,1.5-5.4A32.85,32.85,0,0,0,261,41c.67,1.34,1.47,3,3.28,3.37a5,5,0,0,0,3.39-.84,36.52,36.52,0,0,0-2.13,9.07,38.72,38.72,0,0,0,0,4.94c.07.36.76.44.68,0a29.29,29.29,0,0,1,.41-4.81c.49-2.59,1.7-8.12,2.89-10.54C269.85,41.65,269,41.34,268.57,41.69Z" style="fill:#DD1818"></path><path d="M210.06,48.94a2.55,2.55,0,0,0-1.84-.22,2.52,2.52,0,0,0-.95.41,1.36,1.36,0,0,0-.46.56,3.74,3.74,0,0,0-.71,2,2.11,2.11,0,0,0,2.24,2.24,3.23,3.23,0,0,0,2.67-2.1A2.37,2.37,0,0,0,210.06,48.94Zm.24,2.28a2.63,2.63,0,0,1-1.71,1.9A1.28,1.28,0,0,1,206.86,52a2.9,2.9,0,0,1,.8-2.19,2.21,2.21,0,0,1,1.75-.38A1.47,1.47,0,0,1,210.3,51.22Z" style="fill:#DD1818"></path><path d="M238,22.43a2.55,2.55,0,0,0-1.84-.22,2.66,2.66,0,0,0-1,.41,1.4,1.4,0,0,0-.46.55,3.69,3.69,0,0,0-.7,2,2.1,2.1,0,0,0,2.23,2.25,3.23,3.23,0,0,0,2.67-2.1A2.37,2.37,0,0,0,238,22.43Zm.24,2.28a2.63,2.63,0,0,1-1.71,1.9,1.28,1.28,0,0,1-1.73-1.12,2.91,2.91,0,0,1,.81-2.19,2.2,2.2,0,0,1,1.75-.38A1.46,1.46,0,0,1,238.23,24.71Z" style="fill:#DD1818"></path><path d="M260.86,24.32a2.37,2.37,0,0,0-.81-.22.11.11,0,0,0-.07,0,2.74,2.74,0,0,0-2.77,1.66,1.9,1.9,0,0,0,1.27,2.44,2.74,2.74,0,0,0,3-1.1A1.82,1.82,0,0,0,260.86,24.32Zm0,2.2a2.07,2.07,0,0,1-2,1,1.23,1.23,0,0,1-.78-.51,1.09,1.09,0,0,1-.13-.94,2.11,2.11,0,0,1,.89-1.09,3.06,3.06,0,0,1,.43-.13,2.46,2.46,0,0,1,1.08,0,.89.89,0,0,1,.68.55A1.23,1.23,0,0,1,260.86,26.52Z" style="fill:#DD1818"></path><path d="M220.1,34.81a2.44,2.44,0,0,0-.81-.23.19.19,0,0,0-.08,0,2.74,2.74,0,0,0-2.76,1.66,1.9,1.9,0,0,0,1.26,2.44,2.75,2.75,0,0,0,3-1.1A1.81,1.81,0,0,0,220.1,34.81Zm0,2.19a2.09,2.09,0,0,1-2,1,1.26,1.26,0,0,1-.78-.52,1.11,1.11,0,0,1-.13-.93,2.06,2.06,0,0,1,.9-1.09,2.25,2.25,0,0,1,.42-.13,2.37,2.37,0,0,1,1.09,0,.9.9,0,0,1,.68.56A1.24,1.24,0,0,1,220.1,37Z" style="fill:#DD1818"></path><path d="M272.11,37.35a2.25,2.25,0,0,0-1.28-.78h0l-.07,0a2.48,2.48,0,0,0-1.67.11.26.26,0,0,0-.06.41,2.22,2.22,0,0,0-.51.75,1.75,1.75,0,0,0,.88,2.28,2.2,2.2,0,0,0,2.53-.38A1.85,1.85,0,0,0,272.11,37.35Zm-.66,1.71a1.41,1.41,0,0,1-.78.54,1.43,1.43,0,0,1-.8,0,1.22,1.22,0,0,1-.36-.18l0,0h0l-.08-.09-.06-.06h0l0-.06a.76.76,0,0,1-.14-.38,1.35,1.35,0,0,1,0-.49,1.5,1.5,0,0,1,.74-.93,1.67,1.67,0,0,1,.41-.16l.34,0a1.6,1.6,0,0,1,.8.4,1.45,1.45,0,0,1,.17.26,1,1,0,0,1,.07.38A1.32,1.32,0,0,1,271.45,39.06Z" style="fill:#DD1818"></path><path d="M258.22,54a41.1,41.1,0,0,0-7.61.61q-3.68.51-7.35,1.3A114.25,114.25,0,0,0,229,60.06c-1.31.47-2.6,1-3.89,1.49a32.77,32.77,0,0,0-3.67,1.67c-.35.2.07.71.39.6,2.3-.77,4.55-1.77,6.84-2.6s4.59-1.6,6.91-2.28a126.87,126.87,0,0,1,14.6-3.38c1.3-.23,2.6-.43,3.91-.62s2.78-.32,4.15-.63C258.32,54.28,258.35,54,258.22,54Z" style="fill:#DD1818"></path></g></g><g id="freepik--Sparkles--inject-244"><g id="freepik--Shine--inject-244"><g id="freepik--shine--inject-244"><path d="M182.91,142.17a.24.24,0,0,1-.24-.21l-.59-6.64a1.17,1.17,0,0,0-1.05-1.06l-5.2-.58a.24.24,0,0,1-.21-.24.25.25,0,0,1,.21-.24l5.2-.57a1.18,1.18,0,0,0,1.05-1.06l.59-6.64a.25.25,0,0,1,.24-.22.24.24,0,0,1,.24.22l.6,6.64a1.18,1.18,0,0,0,1,1.06l5.2.57a.26.26,0,0,1,.22.24.25.25,0,0,1-.22.24l-5.2.58a1.17,1.17,0,0,0-1,1.06l-.6,6.64A.23.23,0,0,1,182.91,142.17ZM178,133.44l3.05.34a1.65,1.65,0,0,1,1.46,1.5l.36,4,.36-4a1.66,1.66,0,0,1,1.47-1.5l3-.34-3-.33a1.67,1.67,0,0,1-1.47-1.5l-.36-4-.36,4h0a1.66,1.66,0,0,1-1.46,1.5Zm4.27-1.85h0Z" style="fill:#DD1818"></path><g style="opacity:0.5"><path d="M194.47,129a.24.24,0,0,1-.24-.22l-.4-4.51a.73.73,0,0,0-.65-.66l-3.54-.39a.24.24,0,0,1-.21-.24.25.25,0,0,1,.21-.24l3.54-.39a.73.73,0,0,0,.65-.65l.4-4.52a.25.25,0,0,1,.24-.22.24.24,0,0,1,.24.22l.41,4.52a.72.72,0,0,0,.64.65l3.54.39a.25.25,0,0,1,.21.24.24.24,0,0,1-.21.24l-3.54.39a.72.72,0,0,0-.64.66l-.41,4.51A.23.23,0,0,1,194.47,129Zm-2.62-6,1.39.16a1.2,1.2,0,0,1,1.06,1.08l.17,1.87.17-1.87a1.2,1.2,0,0,1,1.07-1.08l1.38-.16-1.38-.15a1.2,1.2,0,0,1-1.07-1.09l-.17-1.87-.17,1.87h0a1.2,1.2,0,0,1-1.06,1.09Zm2.21-1.26h0Z" style="fill:#DD1818"></path></g></g><g id="freepik--shine--inject-244"><path d="M203.46,84.92a.2.2,0,0,1-.2-.18l-.5-5.48a1,1,0,0,0-.86-.87l-4.29-.48a.19.19,0,0,1-.17-.19.19.19,0,0,1,.17-.2L201.9,77a1,1,0,0,0,.86-.87l.5-5.48a.2.2,0,0,1,.2-.18.19.19,0,0,1,.19.18l.5,5.48h0A1,1,0,0,0,205,77l4.29.48a.19.19,0,0,1,.17.2.19.19,0,0,1-.17.19l-4.29.48a1,1,0,0,0-.86.87l-.5,5.48A.19.19,0,0,1,203.46,84.92Zm-4-7.2L202,78a1.37,1.37,0,0,1,1.21,1.24l.3,3.29.29-3.29A1.37,1.37,0,0,1,205,78l2.52-.27L205,77.44a1.37,1.37,0,0,1-1.21-1.24l-.29-3.29-.3,3.29A1.37,1.37,0,0,1,202,77.44Z" style="fill:#DD1818"></path><g style="opacity:0.5"><path d="M193.53,86.76a.16.16,0,0,1-.16-.15l-.28-3a.48.48,0,0,0-.43-.44l-2.39-.27a.16.16,0,0,1,0-.32l2.39-.26a.49.49,0,0,0,.43-.44l.28-3a.16.16,0,0,1,.16-.15h0a.17.17,0,0,1,.16.15l.27,3a.5.5,0,0,0,.44.44l2.38.26a.16.16,0,0,1,0,.32l-2.38.27a.49.49,0,0,0-.44.44l-.27,3A.16.16,0,0,1,193.53,86.76Zm-1.77-4.06.94.11a.8.8,0,0,1,.71.73l.12,1.26.11-1.26a.82.82,0,0,1,.72-.73l.94-.11-.94-.1a.82.82,0,0,1-.72-.73h0l-.11-1.25-.12,1.25a.8.8,0,0,1-.71.74Z" style="fill:#DD1818"></path></g></g><g id="freepik--shine--inject-244"><path d="M187.2,231.94a.19.19,0,0,1-.19-.18l-.5-5.47a1,1,0,0,0-.86-.88l-4.29-.47a.2.2,0,0,1-.17-.2.2.2,0,0,1,.17-.2l4.29-.47a1,1,0,0,0,.86-.88l.5-5.47a.19.19,0,0,1,.19-.18.19.19,0,0,1,.2.18l.49,5.47h0a1,1,0,0,0,.86.88l4.3.47a.2.2,0,0,1,.17.2.2.2,0,0,1-.17.2l-4.3.47a1,1,0,0,0-.86.88l-.49,5.47A.19.19,0,0,1,187.2,231.94Zm-4-7.2,2.52.28a1.37,1.37,0,0,1,1.21,1.23l.29,3.3.3-3.3a1.37,1.37,0,0,1,1.21-1.23l2.51-.28-2.51-.28a1.37,1.37,0,0,1-1.21-1.23l-.3-3.29-.29,3.29a1.37,1.37,0,0,1-1.21,1.23Z" style="fill:#DD1818"></path><g style="opacity:0.5"><path d="M195.83,241.43a.15.15,0,0,1-.16-.15l-.28-3a.48.48,0,0,0-.43-.44l-2.39-.27a.16.16,0,0,1,0-.32L195,237a.5.5,0,0,0,.43-.45l.28-3a.16.16,0,0,1,.16-.15h0a.17.17,0,0,1,.16.15l.27,3a.51.51,0,0,0,.44.45l2.38.26a.16.16,0,0,1,0,.32l-2.38.27a.49.49,0,0,0-.44.44l-.27,3A.16.16,0,0,1,195.83,241.43Zm-1.77-4.06.93.1a.81.81,0,0,1,.72.74l.12,1.26.11-1.26a.83.83,0,0,1,.72-.74l.94-.1-.94-.1a.82.82,0,0,1-.72-.74h0l-.11-1.26-.12,1.26a.8.8,0,0,1-.72.74Z" style="fill:#DD1818"></path></g></g><g id="freepik--shine--inject-244"><path d="M292.33,304a.19.19,0,0,1-.19-.18l-.5-5.48a1,1,0,0,0-.86-.87l-4.29-.48a.19.19,0,0,1-.17-.19.19.19,0,0,1,.17-.2l4.29-.48a1,1,0,0,0,.86-.87l.5-5.48a.19.19,0,0,1,.19-.18.2.2,0,0,1,.2.18l.49,5.48h0a1,1,0,0,0,.86.87l4.29.48a.2.2,0,0,1,.18.2.19.19,0,0,1-.18.19l-4.29.48a1,1,0,0,0-.86.87l-.49,5.48A.2.2,0,0,1,292.33,304Zm-4-7.2,2.52.27a1.37,1.37,0,0,1,1.21,1.24l.29,3.29.3-3.29a1.37,1.37,0,0,1,1.21-1.24l2.51-.27-2.51-.28a1.37,1.37,0,0,1-1.21-1.24l-.3-3.29-.29,3.29a1.37,1.37,0,0,1-1.21,1.24Z" style="fill:#DD1818"></path><path d="M309.2,209.87a.12.12,0,0,1-.13-.12l-.34-3.69a.64.64,0,0,0-.58-.59l-2.89-.32a.14.14,0,0,1-.12-.14.14.14,0,0,1,.12-.13l2.89-.32a.64.64,0,0,0,.58-.59l.34-3.7a.13.13,0,0,1,.26,0l.34,3.7h0a.64.64,0,0,0,.58.59l2.89.32a.14.14,0,0,1,.12.13.14.14,0,0,1-.12.14l-2.89.32a.64.64,0,0,0-.58.59l-.34,3.69A.12.12,0,0,1,309.2,209.87ZM306.49,205l1.69.19a.93.93,0,0,1,.82.83l.2,2.23.2-2.23a.93.93,0,0,1,.82-.83l1.69-.19-1.69-.18a.93.93,0,0,1-.82-.84l-.2-2.22L309,204a.93.93,0,0,1-.82.84Z" style="fill:#DD1818"></path><g style="opacity:0.5"><path d="M300,286.06a.17.17,0,0,1-.16-.15l-.27-3.05a.5.5,0,0,0-.44-.44l-2.38-.26a.16.16,0,0,1-.15-.16.15.15,0,0,1,.15-.16l2.38-.27a.49.49,0,0,0,.44-.44l.27-3.05a.16.16,0,0,1,.16-.14h0a.15.15,0,0,1,.16.14l.28,3.05a.48.48,0,0,0,.43.44l2.39.27a.15.15,0,0,1,.14.16.16.16,0,0,1-.14.16l-2.39.26a.49.49,0,0,0-.43.44l-.28,3.05A.16.16,0,0,1,300,286.06ZM298.24,282l.94.1a.82.82,0,0,1,.72.73l.11,1.26.12-1.26a.8.8,0,0,1,.72-.73l.93-.1-.93-.11a.8.8,0,0,1-.72-.73h0L300,279.9l-.11,1.26a.82.82,0,0,1-.72.73Z" style="fill:#DD1818"></path></g></g><g id="freepik--shine--inject-244"><path d="M299.92,113a.21.21,0,0,1-.21-.19l-.52-5.76a1,1,0,0,0-.9-.92l-4.51-.5a.21.21,0,0,1-.19-.21.21.21,0,0,1,.19-.2l4.51-.5a1,1,0,0,0,.9-.93l.52-5.75a.21.21,0,0,1,.42,0l.52,5.75a1,1,0,0,0,.9.93l4.51.5a.21.21,0,0,1,.19.2.21.21,0,0,1-.19.21l-4.51.5a1,1,0,0,0-.9.92l-.52,5.76A.21.21,0,0,1,299.92,113Zm-4.23-7.58,2.65.29a1.46,1.46,0,0,1,1.27,1.3l.31,3.46.31-3.46a1.46,1.46,0,0,1,1.28-1.3l2.64-.29-2.64-.29a1.45,1.45,0,0,1-1.28-1.3h0l-.31-3.46-.31,3.46a1.45,1.45,0,0,1-1.27,1.3Z" style="fill:#DD1818"></path><g style="opacity:0.5"><path d="M290.76,117.77a.21.21,0,0,1-.21-.19l-.35-3.92a.63.63,0,0,0-.56-.57l-3.07-.34a.21.21,0,0,1-.18-.21.2.2,0,0,1,.18-.2l3.07-.34a.63.63,0,0,0,.56-.57l.35-3.92a.21.21,0,0,1,.42,0l.35,3.92h0a.63.63,0,0,0,.56.57l3.07.34a.21.21,0,0,1,.19.2.21.21,0,0,1-.19.21l-3.07.34a.63.63,0,0,0-.56.57l-.35,3.92A.21.21,0,0,1,290.76,117.77Zm-2.27-5.23,1.2.14a1.05,1.05,0,0,1,.93.94l.14,1.63.15-1.63a1,1,0,0,1,.92-.94l1.21-.14-1.21-.13a1,1,0,0,1-.92-.94l-.15-1.63-.14,1.63a1.05,1.05,0,0,1-.93.94Z" style="fill:#DD1818"></path></g><g style="opacity:0.5"><path d="M306.1,125.15a.21.21,0,0,1-.21-.19l-.35-3.92a.63.63,0,0,0-.56-.57l-3.07-.34a.21.21,0,0,1-.18-.21.2.2,0,0,1,.18-.2l3.07-.34a.63.63,0,0,0,.56-.57l.35-3.92a.21.21,0,0,1,.42,0l.35,3.92h0a.63.63,0,0,0,.56.57l3.07.34a.21.21,0,0,1,.19.2.21.21,0,0,1-.19.21l-3.07.34a.63.63,0,0,0-.56.57l-.35,3.92A.21.21,0,0,1,306.1,125.15Zm-2.27-5.23,1.2.14a1,1,0,0,1,.92.94l.15,1.63.15-1.63a1,1,0,0,1,.92-.94l1.2-.14-1.2-.13a1,1,0,0,1-.92-.94l-.15-1.63-.15,1.63a1,1,0,0,1-.92.94Z" style="fill:#DD1818"></path></g></g><g id="freepik--shine--inject-244" style="opacity:0.5"><path d="M297.19,64a.21.21,0,0,1-.21-.18L296.64,60a.63.63,0,0,0-.55-.56l-3-.33a.2.2,0,0,1-.18-.2.2.2,0,0,1,.18-.2l3-.34a.62.62,0,0,0,.55-.55L297,54a.21.21,0,0,1,.21-.19.21.21,0,0,1,.2.19l.35,3.84a.6.6,0,0,0,.54.55l3,.34a.2.2,0,0,1,.18.2.2.2,0,0,1-.18.2l-3,.33a.61.61,0,0,0-.54.56l-.35,3.84A.2.2,0,0,1,297.19,64ZM295,58.91l1.18.13a1,1,0,0,1,.9.92l.15,1.59.14-1.59a1,1,0,0,1,.91-.92l1.17-.13-1.17-.13a1,1,0,0,1-.91-.93h0l-.14-1.59L297,57.85a1,1,0,0,1-.9.93Z" style="fill:#DD1818"></path></g><g id="freepik--shine--inject-244" style="opacity:0.5"><path d="M205.28,289.42a.2.2,0,0,1-.2-.19l-.35-3.84a.61.61,0,0,0-.54-.55l-3-.34a.2.2,0,0,1,0-.4l3-.33a.63.63,0,0,0,.54-.56l.35-3.84a.2.2,0,0,1,.4,0l.35,3.84a.63.63,0,0,0,.54.56l3,.33a.2.2,0,0,1,0,.4l-3,.34a.6.6,0,0,0-.54.55l-.35,3.84A.2.2,0,0,1,205.28,289.42Zm-2.23-5.12,1.18.13a1,1,0,0,1,.91.93l.14,1.59.14-1.59a1,1,0,0,1,.91-.93l1.18-.13-1.18-.13a1,1,0,0,1-.91-.92h0l-.14-1.59-.14,1.59a1,1,0,0,1-.91.92Z" style="fill:#DD1818"></path></g><g id="freepik--shine--inject-244" style="opacity:0.5"><path d="M302.24,227a.26.26,0,0,1-.26-.24l-.45-5a.79.79,0,0,0-.71-.72l-3.91-.44a.26.26,0,0,1-.24-.26.25.25,0,0,1,.24-.26l3.91-.44a.79.79,0,0,0,.71-.72l.45-5a.27.27,0,0,1,.53,0l.45,5a.79.79,0,0,0,.71.72l3.91.44a.25.25,0,0,1,.23.26.26.26,0,0,1-.23.26l-3.91.44a.79.79,0,0,0-.71.72l-.45,5A.26.26,0,0,1,302.24,227Zm-2.89-6.65,1.53.17a1.34,1.34,0,0,1,1.18,1.2l.18,2.07.19-2.07a1.33,1.33,0,0,1,1.18-1.2l1.53-.17-1.53-.17a1.33,1.33,0,0,1-1.18-1.2h0l-.19-2.07-.18,2.07a1.34,1.34,0,0,1-1.18,1.2Z" style="fill:#DD1818"></path></g></g></g></svg>